<?xml version="1.0" encoding="utf-8"?>
<!-- Generator: Adobe Illustrator 17.1.0, SVG Export Plug-In . SVG Version: 6.00 Build 0)  -->
<!DOCTYPE svg PUBLIC "-//W3C//DTD SVG 1.1//EN" "http://www.w3.org/Graphics/SVG/1.1/DTD/svg11.dtd">
<svg version="1.1" id="Layer_1" xmlns="http://www.w3.org/2000/svg" xmlns:xlink="http://www.w3.org/1999/xlink" x="0px" y="0px"
	 viewBox="0 0 244.4 91.4" enable-background="new 0 0 244.4 91.4" xml:space="preserve">
<g>
	<path fill="#FFFFFF" d="M30.4,31.9c0.1,0.2,0.2,0.4,0.4,0.6c1.3,2.3,2.6,4.7,3.9,7c2.5,4.5,4.9,9.1,7.4,13.6c-3.1,0-6.2,0-9.2,0
		c-0.4-0.7-0.8-1.4-1.2-2.1c-2.9-5.1-5.7-10.2-8.6-15.4v10.8c0,2.2,0,4.5,0,6.7h-7.9V9.2h7.9v17.5c0.4-0.7,0.8-1.4,1.2-2.2
		c2.8-5.1,5.7-10.2,8.6-15.3h9.4c-3.1,5.5-6.2,11-9.3,16.5c-0.9,1.6-1.8,3.1-2.6,4.7c-0.2,0.3-0.3,0.5-0.5,0.7
		C30.1,31.4,30.2,31.6,30.4,31.9z"/>
	<path fill="#FFFFFF" d="M61,8.7c7.9,0.8,12.2,5.1,12.9,12.9v19.1c-0.8,7.8-5.1,12.1-12.9,12.8c-7.8-0.7-12.1-5-12.8-12.8V21.6
		C48.8,13.8,53.1,9.5,61,8.7z M66,40.8V21.9c-0.3-3-2-4.7-5-5c-3,0.3-4.7,2-5,5v18.9c0.3,3,1.9,4.7,5,4.9C64,45.4,65.7,43.8,66,40.8
		z"/>
	<path fill="#FFFFFF" d="M105.6,53.1h-8.5c-3.1-7.5-6.3-15.1-9.4-22.7v22.7h-7.9V9.2H88c3.2,7.7,6.4,15.4,9.6,23.1v-23h7.9V53.1z"/>
	<path fill="#FFFFFF" d="M133.2,31.3L133.2,31.3c2.2,2.3,3.3,5,3.3,8.3v13.5h-7.9V40.2c-0.3-3-2-4.6-5-4.9h-4.3v17.9h-7.9V35.3v-7.9
		V9.2h12.5c7.9,0.8,12.2,5.2,12.9,13.1C136.8,25.8,135.6,28.8,133.2,31.3z M123.6,27.4c3-0.3,4.7-2,5-5c-0.3-3-2-4.7-5-5h-4.3v10
		H123.6z"/>
	<path fill="#FFFFFF" d="M155.7,8.7c7.9,0.8,12.2,5.2,13.1,13.1v31.8h-8V39.6h-10.1v14.1h-8V21.8C143.5,13.9,147.8,9.6,155.7,8.7z
		 M160.8,31.6v-9.5c-0.3-3.1-2-4.8-5.1-5.1c-3.1,0.3-4.8,2-5,5.1v9.5H160.8z"/>
	<path fill="#FFFFFF" d="M200.1,22.2v18.1v0.1c-0.8,7.8-5.1,12.1-12.9,12.7h-12.5V14.4V9.1h12.5C195,10,199.3,14.4,200.1,22.2z
		 M191.8,40.3V22.1c-0.3-3-2-4.6-4.9-4.8h-4.5v28.1h4.5C189.9,45.1,191.5,43.4,191.8,40.3L191.8,40.3z"/>
</g>
<rect x="12.3" y="61.7" fill="#FFFFFF" width="222.2" height="19.8"/>
<g>
</g>
<g>
</g>
<g>
</g>
<g>
</g>
<g>
</g>
<g>
</g>
</svg>
