<?xml version="1.0" encoding="utf-8"?>
<!-- Generator: Adobe Illustrator 17.1.0, SVG Export Plug-In . SVG Version: 6.00 Build 0)  -->
<!DOCTYPE svg PUBLIC "-//W3C//DTD SVG 1.1//EN" "http://www.w3.org/Graphics/SVG/1.1/DTD/svg11.dtd">
<svg version="1.1" id="Layer_1" xmlns="http://www.w3.org/2000/svg" xmlns:xlink="http://www.w3.org/1999/xlink" x="0px" y="0px"
	 viewBox="0 374.6 612 200.6" enable-background="new 0 374.6 612 200.6" xml:space="preserve">
<g>
	<path d="M41.8,438.5c0.3,0.5,0.5,1.1,1.1,1.6c3.6,6.4,7.1,13,10.8,19.2c6.9,12.4,13.5,25.1,20.3,37.5c-8.6,0-17,0-25.3,0
		c-1.1-2-2.2-3.8-3.3-5.8c-8-14.1-15.7-28-23.6-42.5v29.7c0,6,0,12.4,0,18.5H0V376.1h21.8v48.2c1.1-2,2.2-3.8,3.3-6
		c7.7-14.1,15.7-28,23.6-42.1h25.8c-8.6,15.2-17,30.2-25.6,45.4c-2.5,4.4-4.9,8.6-7.1,13c-0.5,0.9-0.9,1.4-1.4,2
		C41,437.2,41.2,437.8,41.8,438.5z"/>
	<path d="M126.1,374.6c21.8,2.2,33.5,14.1,35.5,35.5v52.6c-2.2,21.4-14.1,33.3-35.5,35.3c-21.4-2-33.3-13.7-35.3-35.3v-52.6
		C92.5,388.7,104.4,376.9,126.1,374.6z M139.9,463.1v-52c-0.9-8.2-5.5-13-13.7-13.7c-8.2,0.9-13,5.5-13.7,13.7v52
		c0.9,8.2,5.3,13,13.7,13.5C134.4,475.7,139,471.3,139.9,463.1z"/>
	<path d="M248.9,496.9h-23.4c-8.6-20.7-17.4-41.6-25.8-62.5v62.5h-21.8V376.1h22.5c8.8,21.2,17.6,42.5,26.4,63.6v-63.4h21.8v120.7
		H248.9z"/>
	<path d="M324.9,436.9L324.9,436.9c6,6.4,9.1,13.7,9.1,22.9v37.2h-21.8v-35.5c-0.9-8.2-5.5-12.6-13.7-13.5h-11.9v49.3H265V448v-21.8
		v-50.2h34.4c21.8,2.2,33.5,14.3,35.5,36.1C334.9,421.8,331.6,430.1,324.9,436.9z M298.5,426.2c8.2-0.9,13-5.5,13.7-13.7
		c-0.9-8.2-5.5-13-13.7-13.7h-11.9v27.5H298.5z"/>
	<path d="M387,374.6c21.8,2.2,33.5,14.3,36.1,36.1v87.6h-22v-38.6h-27.8v38.9h-22v-87.9C353.3,389,365.2,377.2,387,374.6z
		 M401,437.8v-26.2c-0.9-8.6-5.5-13.2-14.1-14.1c-8.6,0.9-13.2,5.5-13.7,14.1v26.2H401z"/>
	<path d="M509.3,411.9v49.8v0.3c-2.2,21.4-14.1,33.3-35.5,35h-34.4V390.5v-14.6h34.4C495.2,378.3,507.1,390.4,509.3,411.9z
		 M486.4,461.7v-50.2c-0.9-8.2-5.5-12.6-13.5-13.2h-12.4v77.4h12.4C481.1,474.9,485.5,470.2,486.4,461.7L486.4,461.7z"/>
	<rect x="0" y="520.7" width="612" height="54.6"/>
</g>
</svg>
