<?xml version="1.0" encoding="utf-8"?>
<!-- Generator: Adobe Illustrator 17.1.0, SVG Export Plug-In . SVG Version: 6.00 Build 0)  -->
<!DOCTYPE svg PUBLIC "-//W3C//DTD SVG 1.1//EN" "http://www.w3.org/Graphics/SVG/1.1/DTD/svg11.dtd">
<svg version="1.1" id="Layer_1" xmlns="http://www.w3.org/2000/svg" xmlns:xlink="http://www.w3.org/1999/xlink" x="0px" y="0px"
	 viewBox="30.8 304.6 556.4 181" enable-background="new 30.8 304.6 556.4 181" xml:space="preserve">
<g>
	<path d="M76.1,361.4c0.3,0.5,0.5,1,1,1.5c3.3,5.8,6.5,11.8,9.8,17.5c6.3,11.3,12.3,22.8,18.5,34.1c-7.8,0-15.5,0-23,0
		c-1-1.8-2-3.5-3-5.3c-7.3-12.8-14.3-25.5-21.5-38.6v27c0,5.5,0,11.3,0,16.8H38.1V304.6h19.8v43.8c1-1.8,2-3.5,3-5.5
		c7-12.8,14.3-25.5,21.5-38.3h23.5c-7.8,13.8-15.5,27.5-23.3,41.3c-2.3,4-4.5,7.8-6.5,11.8c-0.5,0.8-0.8,1.3-1.3,1.8
		C75.4,360.2,75.6,360.7,76.1,361.4z"/>
	<path d="M152.7,303.3c19.8,2,30.5,12.8,32.3,32.3v47.8c-2,19.5-12.8,30.3-32.3,32.1c-19.5-1.8-30.3-12.5-32.1-32.1v-47.8
		C122.2,316.1,133,305.4,152.7,303.3z M165.3,383.7v-47.3c-0.8-7.5-5-11.8-12.5-12.5c-7.5,0.8-11.8,5-12.5,12.5v47.3
		c0.8,7.5,4.8,11.8,12.5,12.3C160.3,395.2,164.5,391.2,165.3,383.7z"/>
	<path d="M264.4,414.5h-21.3c-7.8-18.8-15.8-37.8-23.5-56.8v56.8h-19.8V304.6h20.5c8,19.3,16,38.6,24,57.8v-57.6h19.8v109.7H264.4z"
		/>
	<path d="M333.5,359.9L333.5,359.9c5.5,5.8,8.3,12.5,8.3,20.8v33.8H322v-32.3c-0.8-7.5-5-11.5-12.5-12.3h-10.8v44.8H279V370v-19.8
		v-45.6h31.3c19.8,2,30.5,13,32.3,32.8C342.6,346.2,339.6,353.7,333.5,359.9z M309.5,350.2c7.5-0.8,11.8-5,12.5-12.5
		c-0.8-7.5-5-11.8-12.5-12.5h-10.8v25H309.5z"/>
	<path d="M389.9,303.3c19.8,2,30.5,13,32.8,32.8v79.6h-20v-35.1h-25.3V416h-20v-79.9C359.3,316.4,370.1,305.6,389.9,303.3z
		 M402.7,360.7v-23.8c-0.8-7.8-5-12-12.8-12.8c-7.8,0.8-12,5-12.5,12.8v23.8H402.7z"/>
	<path d="M501.1,337.2v45.3v0.3c-2,19.5-12.8,30.3-32.3,31.8h-31.3v-96.9v-13.3h31.3C488.3,306.6,499.1,317.6,501.1,337.2z
		 M480.3,382.5v-45.6c-0.8-7.5-5-11.5-12.3-12h-11.3v70.4H468C475.5,394.5,479.5,390.2,480.3,382.5L480.3,382.5z"/>
</g>
<rect x="30.8" y="436.1" width="556.4" height="49.6"/>
</svg>
